<?xml version="1.0" standalone="no"?>
<!DOCTYPE svg PUBLIC "-//W3C//DTD SVG 20010904//EN"
 "http://www.w3.org/TR/2001/REC-SVG-20010904/DTD/svg10.dtd">
<svg version="1.0" xmlns="http://www.w3.org/2000/svg"
 width="1280.000000pt" height="1280.000000pt" viewBox="0 0 1280.000000 1280.000000"
 preserveAspectRatio="xMidYMid meet">
<metadata>
Created by potrace 1.14, written by Peter Selinger 2001-2017
</metadata>
<g transform="translate(0.000000,1280.000000) scale(0.100000,-0.100000)"
fill="#000000" stroke="none">
<path d="M2465 12793 c-169 -37 -259 -70 -355 -132 -63 -40 -155 -114 -186
-151 -12 -14 -32 -36 -44 -50 -30 -33 -90 -126 -90 -140 0 -5 -4 -10 -9 -10
-5 0 -13 -10 -17 -22 -3 -13 -15 -41 -25 -63 -20 -47 -48 -143 -58 -200 -9
-56 -8 -11199 1 -11255 4 -25 12 -61 18 -80 6 -19 13 -44 15 -55 7 -30 101
-216 127 -250 152 -197 370 -332 603 -373 53 -9 7847 -9 7905 0 178 28 345
110 479 233 56 53 151 165 151 179 0 3 7 14 16 24 9 11 33 57 54 104 34 78 50
130 68 228 10 49 9 11196 0 11245 -22 116 -22 116 -69 225 -13 30 -27 57 -31
58 -5 2 -8 9 -8 16 0 30 -147 211 -217 266 -99 78 -235 148 -356 182 l-82 23
-3935 1 c-2164 1 -3944 0 -3955 -3z"/>
</g>
</svg>
